<svg xmlns="http://www.w3.org/2000/svg" width="256" height="256"><path fill-opacity=".016" d="M0 128.004v128.004l128.25-.254 128.25-.254.254-127.75L257.008 0H0v128.004m.485.496c0 70.4.119 99.053.265 63.672.146-35.38.146-92.98 0-128C.604 29.153.485 58.1.485 128.5" fill="#1976D2" fill-rule="evenodd"/><path fill-opacity=".275" d="M103 42v7h11V35h-11v7m19 .057v7.058l4.25-.308 4.25-.307.296-6.75.295-6.75H122v7.057m19-.007v7.05l5.75-.3 5.75-.3.296-6.75.295-6.75H141v7.05m19-.05v7h9V35h-9v7m27 5.579c-14.698 1.666-22.686 2.857-30.239 4.509C149.387 53.701 143.902 54 121.666 54c-31.37 0-29.656-.668-29.685 11.579l-.019 7.921-8.502 3.75C78.784 79.313 73.842 81 72.479 81 71.052 81 70 81.579 70 82.364c0 .75-5.513 4.413-12.25 8.14-14.02 7.757-28.759 17.363-42.142 27.466-11.969 9.036-15.485 13.06-5.108 5.846 11.063-7.691 27.509-17.01 43.451-24.621l13.451-6.423 9.799.154L87 93.08v-4.04c0-2.222.413-4.04.918-4.04.505 0 1.63-.273 2.5-.607C91.836 83.849 92 86.491 92 109.822c0 22.335.223 26.258 1.571 27.607 1.326 1.325 4.813 1.576 22.25 1.601 11.752.018 20.031.395 19.179.874-1.829 1.027-21.539 4.671-32.5 6.007-29.678 3.619-55.216 1.406-63.419-5.496-6.066-5.104-4.403-14.295 4.217-23.309 4.965-5.193 3.496-4.576-4.969 2.084C25.578 129.224 17 141.232 17 149.048c0 7.876 8.435 14.665 21.716 17.48 8.991 1.905 30.773 1.871 44.156-.069 8.808-1.276 27.273-5.307 36.878-8.05 1.67-.477 2.25-.226 2.25.974 0 1.25 1.022 1.617 4.5 1.617 4.342 0 4.5-.107 4.5-3.025 0-3.092 1.209-3.985 7.544-5.575 2.342-.588 2.456-.403 2.456 3.992V161H149.909l.295-6.547.296-6.547 10.489-4.453c5.769-2.449 10.845-4.453 11.281-4.453.435 0 3.968-1.8 7.85-4 6.48-3.672 7.667-4 14.47-4H202v-3.928c0-3.751.28-4.095 6.25-7.673C223.669 110.157 255 87.351 255 85.37c0-.337-.846.003-1.88.758-11.782 8.595-27.744 18.376-41.375 25.35-14.401 7.369-17.336 8.522-21.699 8.522-4.368 0-5.046.267-5.046 1.987 0 1.337-1.183 2.48-3.622 3.5-1.992.832-3.792 1.513-4 1.513-.208 0-.378-13.275-.378-29.5V68h4c3.778 0 4 .167 4 3v3h8.094c7.363 0 8.142-.188 8.639-2.085.469-1.797 1.04-1.993 4.121-1.414 7.368 1.382 13.637 5.903 14.663 10.575.792 3.606-2.157 10.409-7.223 16.665l-3.794 4.685 3.5-2.403c5.935-4.074 20.614-19.295 22.838-23.681 8.662-17.081-4.11-27.687-34.655-28.778-5.876-.21-12.258-.204-14.183.015M70.2 67.75l.3 5.75 8.25.29 8.25.291V62H69.9l.3 5.75m47.244 12.535c-.271.707-.37 9.144-.219 18.75l.275 17.465 17.926.274c13.673.209 18.118-.029 18.735-1 .934-1.472 1.141-32.824.232-35.192-.522-1.361-3.109-1.582-18.531-1.582-13.679 0-18.042.304-18.418 1.285M185 87v6.081l8.25-.291 8.25-.29v-11l-8.25-.29-8.25-.291V87M70.705 100.628c-.388.388-.705 3.105-.705 6.039V112h17.1l-.3-5.75-.3-5.75-7.545-.288c-4.15-.159-7.862.029-8.25.416M185 105.96V112h17.1l-.3-5.75-.3-5.75-8.25-.29-8.25-.291v6.041M70 125.5v5.5h17v-11H70v5.5m90 28.5v7h9v-14h-9v7M22.954 180.75c-4.064 3.631-4.912 9.39-2.054 13.946 4.465 7.118 15.526 6.314 18.734-1.362 4.444-10.636-8.191-20.169-16.68-12.584M41 178.493c0 1.353 7.447 19.183 8.484 20.313.955 1.04 1.695-.05 3.638-5.354l2.44-6.66 2.469 6.019c1.358 3.311 2.887 6.17 3.397 6.354.51.184 2.616-3.714 4.68-8.662 2.868-6.878 4.299-9.152 6.072-9.651C76.998 179.496 77 179.5 77 189.5c0 8.833.14 9.5 2 9.5 1.86 0 2-.667 2-9.545v-9.546l3.628.681c2.851.535 3.53.384 3.169-.705-.339-1.022-2.927-1.457-9.878-1.661l-9.419-.275-2.996 7.98c-1.647 4.389-3.265 7.663-3.594 7.275-.329-.387-1.621-3.292-2.87-6.454-1.25-3.162-2.587-5.75-2.971-5.75-.385 0-1.762 3.012-3.062 6.693l-2.363 6.693-3.072-8.182c-2.23-5.938-3.552-8.184-4.822-8.193-.962-.006-1.75.211-1.75.482m101.626 1.024c-2.622 2.622-1.956 6.242 1.874 10.186 3.716 3.826 4.494 6.978 1.963 7.95-.846.324-2.421-.21-3.5-1.187-1.89-1.71-1.963-1.7-1.963.271 0 2.823 4.433 3.864 7.606 1.786 3.583-2.348 3.158-6.39-1.106-10.523-3.838-3.72-4.747-8-1.7-8 .99 0 2.384.563 3.097 1.25 1.049 1.011 1.229.868.942-.75-.459-2.576-5.001-3.195-7.213-.983m-117.742 2.599c-1.753 1.753-2.034 2.968-1.64 7.075.524 5.449 1.874 7.339 5.956 8.339 2.12.52 3.273.088 5.371-2.01 2.34-2.34 2.607-3.248 2.15-7.307-.847-7.509-7.168-10.766-11.837-6.097m64.082 1.134c-.019.137-.131 3.738-.25 8.001l-.216 7.751 4.75-.001C95.862 199 98 198.55 98 198c0-.55-1.35-1-3-1-2.533 0-3-.389-3-2.5 0-1.808.537-2.5 1.941-2.5 1.068 0 2.219-.45 2.559-1 .351-.567-.49-1-1.941-1-2.063 0-2.559-.485-2.559-2.5 0-2 .5-2.5 2.5-2.5 1.375 0 2.5-.45 2.5-1 0-.82-7.924-1.56-8.034-.75m14.193 1.351c-5.542 3.882-4.316 12.497 2.02 14.196 3.641.976 6.984.214 7.635-1.74.33-.989-.052-1-1.825-.051-4.868 2.605-9.45-2.93-7.364-8.896 1.026-2.938 5.484-4.095 7.935-2.06 1.735 1.44 1.941-.149.24-1.85-1.688-1.688-5.939-1.491-8.641.401m12.529-.955c-.379.378-.688 3.987-.688 8.021 0 6.666.182 7.333 2 7.333 1.619 0 2-.667 2-3.5 0-3.333.167-3.5 3.5-3.5s3.5.167 3.5 3.5c0 2.444.452 3.5 1.5 3.5 1.208 0 1.5-1.556 1.5-8s-.292-8-1.5-8c-1.048 0-1.5 1.056-1.5 3.5 0 3.321-.176 3.5-3.437 3.5-3.127 0-3.464-.285-3.75-3.173-.305-3.096-1.745-4.561-3.125-3.181m36.312.142c0 .433 1.332 2.346 2.959 4.25 2.107 2.465 2.971 4.542 3 7.212.029 2.649.482 3.75 1.541 3.75 1.056 0 1.5-1.067 1.5-3.606 0-2.498.922-4.77 3-7.394 3.187-4.024 3.585-5 2.036-5-.53 0-2.057 1.608-3.393 3.574l-2.428 3.574-2.726-3.574c-2.471-3.239-5.489-4.771-5.489-2.786m17.2.412c-1.941 1.941-1.384 5.278 1.3 7.8 2.736 2.571 3.342 6 1.059 6-.793 0-1.719-.45-2.059-1-.789-1.277-2.5-1.301-2.5-.035 0 1.563 3.912 3.198 6.039 2.523 1.08-.343 2.417-1.472 2.972-2.509.807-1.508.406-2.573-2.001-5.314-3.143-3.58-3.934-6.665-1.71-6.665.715 0 1.84.54 2.5 1.2.933.933 1.2.846 1.2-.393 0-2.652-4.655-3.752-6.8-1.607m7.8.319c0 1.121.655 1.355 2.5.892 2.491-.626 2.5-.602 2.5 6.481 0 6.441.188 7.108 2 7.108 1.813 0 2-.667 2-7.117 0-7.051.023-7.112 2.5-6.638 1.676.32 2.5.029 2.5-.884 0-1.018-1.761-1.361-7-1.361-5.595 0-7 .305-7 1.519M193 191v8h4.5c2.475 0 4.5-.45 4.5-1s-1.35-1-3-1c-2.533 0-3-.389-3-2.5 0-2 .5-2.5 2.5-2.5 1.375 0 2.5-.45 2.5-1s-1.125-1-2.5-1c-2 0-2.5-.5-2.5-2.5 0-2.111.467-2.5 3-2.5 1.65 0 3-.45 3-1s-2.025-1-4.5-1H193v8m13.539-6.813c-.498 1.461-2.539 12.715-2.539 13.997 0 .449.651.816 1.448.816 1.041 0 1.532-1.473 1.75-5.25l.302-5.25 3 5.249c1.65 2.887 3.328 5.249 3.73 5.25.401.001 2.062-2.332 3.691-5.184l2.961-5.185.688 5.185c.547 4.126 1.065 5.185 2.534 5.185 1.477 0 1.739-.55 1.31-2.75-.295-1.512-.846-4.961-1.225-7.664-.379-2.702-1.139-4.907-1.689-4.9-.55.007-2.329 2.33-3.954 5.163S215.241 194 214.813 194c-.429 0-1.903-2.218-3.277-4.929-2.726-5.38-4.304-6.922-4.997-4.884m23.211-.107c-2.595 1.512-2.13 4.463 1.25 7.92 1.65 1.688 3 3.518 3 4.066 0 1.647-2.92 2.245-4.513.923-1.204-.999-1.487-.947-1.487.272 0 2.197 4.083 2.914 6.728 1.182 3.025-1.983 2.865-3.698-.728-7.79-1.65-1.879-3-3.92-3-4.535 0-1.478 2.289-1.429 3.8.082.933.933 1.2.846 1.2-.393 0-2.545-3.286-3.453-6.25-1.727M88.434 209.107c-.461.745.011.887 1.441.433 1.993-.633 2.125-.329 2.125 4.893 0 3.062.45 5.567 1 5.567s1-2.523 1-5.607c0-4.573.277-5.501 1.5-5.031.825.316 1.5.139 1.5-.393 0-1.347-7.726-1.222-8.566.138m51.531.435c-1.061 1.278-.911 2.04.878 4.459 2.71 3.666 2.767 5.392.156 4.709-1.101-.288-1.75-.115-1.441.383.936 1.515 4.187 1.014 4.863-.748.381-.992-.177-2.521-1.393-3.815-2.45-2.608-2.766-6.027-.476-5.148.89.341 1.291.173.941-.393-.871-1.41-2.052-1.225-3.528.553m-103.38 1.708c-1.28 6.354-1.449 8.75-.617 8.75.504 0 1.055-1.912 1.225-4.25l.307-4.25 2.539 4.298 2.539 4.298 2.461-4.298L47.5 211.5l.307 4.25c.17 2.338.788 4.25 1.375 4.25.663 0 .831-1.186.443-3.125-.344-1.719-.625-4.194-.625-5.5 0-3.509-1.336-2.901-3.985 1.812l-2.353 4.187-2.028-4.187c-2.28-4.708-3.385-5.236-4.049-1.937m17.615.95c-2.657 2.657-.727 7.8 2.929 7.8 2.061 0 4.871-2.596 4.871-4.5 0-3.498-5.342-5.758-7.8-3.3m10.8 3.3c0 2.475.45 4.5 1 4.5s1-2.025 1-4.5-.45-4.5-1-4.5-1 2.025-1 4.5m3.54-1.133c.12 3.643 1.054 5.633 2.641 5.633.687 0 .636-.515-.141-1.452-.663-.799-.933-2.31-.6-3.359.334-1.051.019-2.393-.702-2.991-1.032-.857-1.284-.402-1.198 2.169M75 215.5c0 4.034.233 4.488 2.25 4.384 1.693-.087 1.817-.229.5-.573-.963-.252-1.75-1.067-1.75-1.811s.787-1.559 1.75-1.811c1.667-.435 1.667-.463 0-.573-.963-.064-1.75-.758-1.75-1.543 0-.784.787-1.632 1.75-1.884 1.317-.344 1.193-.486-.5-.573-2.017-.104-2.25.35-2.25 4.384m25-.108c0 2.752.399 4.479.956 4.135.526-.325.703-1.252.393-2.059-.404-1.053.154-1.468 1.974-1.468 1.837 0 2.658.622 2.971 2.25.239 1.238.434 0 .434-2.75s-.199-3.961-.442-2.691c-.324 1.701-1.013 2.228-2.613 2-1.195-.17-2.173-.834-2.173-1.476 0-.641-.338-1.504-.75-1.916-.412-.413-.75 1.376-.75 3.975m12.131-.426c-2.407 4.982-2.124 6.855.321 2.127 1.556-3.01 3.113-4.289 2.319-1.905-.373 1.117 3.025 5.363 3.717 4.645.177-.183-.704-2.339-1.959-4.791l-2.282-4.457-2.116 4.381m15.869-.779v3.187l-3-2.874-3-2.874.15 4.437c.107 3.18.271 3.626.577 1.574l.428-2.863 2.922 2.8 2.923 2.8v-4.687c0-2.578-.225-4.687-.5-4.687s-.5 1.434-.5 3.187m21.2-1.987c-1.658 1.658-1.504 5.303.287 6.789 2.042 1.695 6.234.466 7.036-2.063 1.263-3.979-4.409-7.64-7.323-4.726m10.8 3.241c0 4.322.143 4.556 2.75 4.496 2.736-.063 2.738-.069.388-1.01-1.926-.771-2.28-1.506-1.917-3.98.245-1.669.071-3.267-.388-3.55-.458-.283-.833 1.537-.833 4.044m8.357-.441c.137 4.302.275 4.5 3.143 4.5s3.006-.198 3.143-4.5l.143-4.5-.643 4c-.501 3.119-1.083 4-2.643 4-1.56 0-2.142-.881-2.643-4l-.643-4 .143 4.5m10.839-3.321c1.166.307 1.814 1.754 2.075 4.634l.38 4.187.174-4.177c.128-3.042.65-4.301 1.925-4.634.963-.251-.05-.457-2.25-.457s-3.237.201-2.304.447M188 215.5c0 2.475.45 4.5 1 4.5s1-2.025 1-4.5-.45-4.5-1-4.5-1 2.025-1 4.5m6.75-3.42c-3.56 2.073-1.53 7.92 2.75 7.92 4.393 0 6.313-5.96 2.566-7.965-2.364-1.265-3.078-1.259-5.316.045m17.25 2.107v3.187l-2.805-2.687c-1.542-1.478-3.117-2.687-3.5-2.687-.382 0-.623 1.912-.535 4.25.146 3.88.196 3.956.573.874l.412-3.375 3.428 3.321 3.427 3.322v-4.696c0-2.583-.225-4.696-.5-4.696s-.5 1.434-.5 3.187m4.461-2.124c-.361.585.062 1.858.941 2.829 2.025 2.238 2.085 4.509.098 3.746-.825-.316-1.5-.139-1.5.393 0 1.302 3.714 1.24 4.527-.075.355-.574-.116-2.206-1.046-3.626-1.396-2.13-1.455-2.732-.336-3.44 1.065-.675.993-.863-.336-.875-.93-.008-1.987.463-2.348 1.048m-161.049 1.305c-1.006 2.621.022 5.132 2.102 5.132 1.538 0 1.986-.674 1.986-2.986 0-3.272-3.043-4.869-4.088-2.146m94.071.685c-.843 2.658 1.637 5.499 4.006 4.589 2.516-.965 1.605-6.057-1.153-6.45-1.5-.214-2.376.358-2.853 1.861m45.929-.685c-1.006 2.621.022 5.132 2.102 5.132 1.538 0 1.986-.674 1.986-2.986 0-3.272-3.043-4.869-4.088-2.146" fill="#1976D2" fill-rule="evenodd"/><path fill-opacity=".406" d="m103.204 41.75.296 6.75h10l.296-6.75.295-6.75h-11.182l.295 6.75m19 0 .296 6.75 3.75.31 3.75.311V35H121.909l.295 6.75m19.208-5.381c-.289.753-.388 3.791-.219 6.75l.307 5.381 5.25.302 5.25.303V35h-5.031c-3.337 0-5.209.461-5.557 1.369m19.023-.061c-.302.787-.411 3.852-.242 6.811l.307 5.381h8v-13l-3.758-.311c-2.559-.212-3.933.146-4.307 1.119M170.5 49.935c-6.05 1.017-13.025 2.337-15.5 2.933-2.648.637-15.715 1.093-31.75 1.108C90.466 54.005 92 53.422 92 65.858v7.857l-9.043 4.143C77.984 80.136 73.082 82 72.064 82c-1.017 0-2.103.658-2.411 1.462-.309.805-3.17 2.782-6.357 4.395-8.125 4.11-19.926 11.175-30.654 18.353C23.243 112.498 8 123.92 8 124.674c0 .233 4.162-2.462 9.25-5.988 11.493-7.967 25.693-16.493 41-24.616C68.827 88.456 70 88.042 70 89.917c0 1.949.552 2.083 8.589 2.083h8.589l-.339-5.878c-.324-5.624-.221-5.922 2.411-6.913L92 78.174v28.302c0 25.544.172 28.515 1.763 30.48 1.739 2.147 2.094 2.172 26.25 1.818l24.487-.359 11-3.589c6.05-1.974 13.25-4.444 16-5.489l5-1.899.263-34.719.263-34.719 10.737.035c18.747.061 34.836 4.37 38.778 10.387 3.953 6.033.414 15.141-10.499 27.022-4.345 4.731-4.39 4.84-1.042 2.523 6.337-4.383 17.785-16.609 20.416-21.802 4.464-8.808 2.909-16.934-4.065-21.253-7.978-4.941-13.963-6.142-32.351-6.493-13.621-.261-19.938.075-28.5 1.516M70.705 62.628c-.388.388-.705 2.88-.705 5.539V73h17.105l-.303-5.25-.302-5.25-7.545-.288c-4.15-.159-7.862.029-8.25.416M185 67.5V73h15.75l.625-3.125C202.948 62.008 202.94 62 193.5 62H185v5.5M117 98v19.044l18.75-.272 18.75-.272v-37l-18.75-.272-18.75-.272V98m68-11v5h16V82h-16v5m48.79 12.845c-34.111 23.135-74.741 42.006-109.038 50.645-20.476 5.158-34.499 6.913-54.752 6.853-14.705-.043-18.774-.396-25.477-2.214-10.389-2.817-15.083-5.928-16.603-11.001-1.045-3.487-.899-4.495 1.366-9.441 1.394-3.045 4.266-7.483 6.381-9.862 2.116-2.379 4.743-5.427 5.84-6.775l1.993-2.45-3 2.259c-5.833 4.393-16.737 15.697-19.214 19.92-8.998 15.339-.792 25.843 22.865 29.263 17.245 2.493 48.788-1.012 71.599-7.956 6.148-1.872 6.25-1.871 6.25.006 0 1.554.73 1.908 3.937 1.908 3.685 0 3.956-.201 4.25-3.161.28-2.83.857-3.345 5.511-4.922l5.199-1.76.301 4.671c.298 4.603.357 4.677 4.005 4.98l3.703.307.297-6.604.297-6.605 10.489-4.453c5.769-2.449 11.255-4.453 12.191-4.453.936 0 1.986-.46 2.334-1.022.347-.563 3.286-2.363 6.53-4 4.877-2.462 7.117-2.978 12.927-2.978H201v-3.818c0-3.804.045-3.846 12.25-11.391C224.421 108.884 250 90.557 250 89.459c0-.645 1.017-1.297-16.21 10.386M70.198 106.25l.302 5.25h16l.302-5.25.303-5.25h-17.21l.303 5.25m115 0 .302 5.25 7.75.292 7.75.292V101h-16.105l.303 5.25m-115 19 .302 5.25h16l.302-5.25.303-5.25h-17.21l.303 5.25M185 122c0 2.44.543 2.44 5 0l3.5-1.916-4.25-.042c-3.597-.036-4.25.265-4.25 1.958m-24.565 26.308c-.302.787-.411 3.852-.242 6.811l.307 5.381h8v-13l-3.758-.311c-2.559-.212-3.933.146-4.307 1.119M25.329 179.446c-3.935 1.726-5.329 4.229-5.329 9.565 0 5.836 4.158 9.989 10 9.989 3.258 0 4.784-.631 7.077-2.923 7.984-7.985-1.347-21.195-11.748-16.631m117.894.111c-3.201 2.241-2.761 4.699 1.777 9.943 4.382 5.063 4.564 5.536 2.8 7.3-1.738 1.738-4.532 1.472-5.787-.55-.993-1.6-1.061-1.578-.792.25.408 2.766 6.635 3.417 8.485.888 2.146-2.935 1.497-5.212-2.819-9.895-4.817-5.226-4.765-8.119.128-7.14 3.109.622 4.161-.688 1.403-1.746-2.264-.869-2.717-.786-5.195.95M45.34 189c2.238 5.5 4.373 10 4.743 10 .37 0 1.688-2.715 2.929-6.033 1.241-3.317 2.517-5.772 2.835-5.454.318.319 1.534 2.839 2.702 5.602 1.168 2.763 2.534 5.042 3.037 5.065.503.023 2.615-3.971 4.694-8.875l3.779-8.917 3.971-.235 3.97-.234v9.54c0 6.966.337 9.541 1.25 9.542.938 0 1.162-2.403.899-9.621l-.35-9.622 3.6.42c1.981.231 3.601.061 3.601-.379 0-.439-4.171-.799-9.269-.799h-9.269l-2.863 7.5c-1.575 4.125-3.144 7.5-3.486 7.5-.343 0-1.67-2.7-2.95-6-1.279-3.3-2.651-6-3.047-6-.397 0-1.548 2.363-2.558 5.25-1.011 2.887-2.179 5.632-2.598 6.1-.418.467-2.032-2.57-3.586-6.75-1.944-5.226-3.338-7.6-4.466-7.6-1.357 0-.938 1.722 2.432 10m-20.821-7.021c-2.456 2.714-2.355 9.421.194 12.85 2.594 3.49 7.391 4.067 10.228 1.23 3.304-3.304 2.476-12.745-1.341-15.294-2.173-1.451-7.288-.767-9.081 1.214M106 183.707c-6.151 2.247-8.013 9.564-3.365 13.22 2.732 2.149 8.787 2.817 9.856 1.088.378-.612-.558-.752-2.468-.37-4.261.853-7.023-1.774-7.023-6.678 0-4.492 1.935-6.35 5.991-5.755 1.655.243 3.009.07 3.009-.385s-.413-.827-.918-.827c-.505 0-1.518-.189-2.25-.421-.733-.231-2.007-.174-2.832.128M89 191.5v7.5h4c2.2 0 4-.422 4-.938s-1.237-.854-2.75-.75c-2.431.166-2.75-.16-2.75-2.812 0-2.537.347-2.952 2.25-2.687 1.237.172 2.25-.166 2.25-.75 0-.585-1.125-1.063-2.5-1.063-1.983 0-2.5-.504-2.5-2.437 0-1.999.583-2.509 3.25-2.84 2.817-.349 2.684-.424-1-.563L89 184v7.5m27 0c0 4.333.422 7.5 1 7.5.55 0 1-1.575 1-3.5 0-3.417.095-3.5 4-3.5s4 .083 4 3.5c0 2.444.452 3.5 1.5 3.5 1.2 0 1.5-1.5 1.5-7.5s-.3-7.5-1.5-7.5c-1 0-1.5 1-1.5 3 0 2.847-.21 3-4.113 3-4.002 0-4.102-.082-3.674-3 .301-2.047.019-3-.886-3-.985 0-1.327 1.935-1.327 7.5m38.927-3.772c2.229 2.703 3.073 4.764 3.073 7.5 0 2.686.432 3.772 1.5 3.772 1.055 0 1.5-1.066 1.5-3.596 0-1.977.826-4.79 1.836-6.25 2.872-4.152 3.346-5.154 2.439-5.154-.464 0-1.641 1.35-2.616 3-.975 1.65-2.084 2.999-2.466 2.997-.381-.001-1.593-1.35-2.693-2.997-1.1-1.647-2.82-2.996-3.823-2.997-1.539-.003-1.345.576 1.25 3.725m13.74-3.061c-1.438 1.437-.53 4.18 2.397 7.243 1.685 1.763 2.885 3.742 2.667 4.398-.58 1.743-3.852 2.108-4.846.54-.661-1.044-.858-.953-.87.402-.018 2.074 4.865 2.47 6.785.55 1.936-1.936 1.405-3.993-1.912-7.416-3.242-3.344-3.126-5.941.225-5.065 1.038.272 1.887.086 1.887-.413 0-1.041-5.33-1.242-6.333-.239m11.083.056 3.25.404v6.936c0 3.958.429 6.937 1 6.937s1-2.979 1-6.937v-6.936l3.25-.404c1.787-.221-.125-.403-4.25-.403s-6.037.182-4.25.403M193 191.5v7.5h3.941c2.168 0 4.215-.443 4.55-.985.377-.611-.55-.753-2.441-.375-2.939.588-3.05.482-3.05-2.921 0-3.039.279-3.459 2-3.009 1.118.293 2 .031 2-.593 0-.615-.9-1.117-2-1.117-1.452 0-2-.667-2-2.434 0-1.887.617-2.527 2.75-2.85 1.931-.292 1.484-.461-1.5-.566L193 184v7.5m13.686-6.75c-.237.412-.739 3-1.116 5.75-.376 2.75-.914 5.787-1.194 6.75-.281.963-.082 1.75.443 1.75s1.343-2.588 1.818-5.75l.864-5.75 3.345 5.904c3.623 6.395 3.482 6.41 7.274-.773 2.338-4.43 3.606-3.871 4.063 1.792.179 2.217.917 4.12 1.698 4.377 1.12.368 1.251-.657.691-5.423-.808-6.878-1.446-9.378-2.389-9.374-.376.002-2.017 2.477-3.648 5.5-1.631 3.024-3.221 5.497-3.535 5.497-.314 0-1.904-2.473-3.535-5.497-2.873-5.325-3.875-6.322-4.779-4.753m22.367.686c-1.377 1.659-.408 4.028 2.854 6.98 2.596 2.349 2.766 5.584.293 5.584-.99 0-2.396-.562-3.125-1.25-1.069-1.009-1.237-.961-.867.25.291.951 1.709 1.5 3.875 1.5 2.912 0 3.461-.374 3.712-2.533.197-1.684-.557-3.335-2.25-4.924-3.43-3.223-3.455-6.45-.045-5.798 1.375.263 2.5.09 2.5-.384 0-1.433-5.67-.964-6.947.575" fill="#1976D2" fill-rule="evenodd"/><path fill-opacity=".454" d="M123 41.701V48h7V36.219l-3.5-.409-3.5-.408v6.299m18.999.049L142 48h10V36.193l-5.001-.346-5-.347v6.25m19.001 0V48h7V35.5h-7v6.25m-57.5.25v6h10V36h-10v6m81 6.564c-1.65.222-6.825.905-11.5 1.518-4.675.612-12.433 1.969-17.239 3.016C148.433 54.693 142.85 55 121.211 55c-18.742 0-26.14.329-27.011 1.2-.737.737-1.2 4.345-1.2 9.354v8.154l-9.25 4.161c-5.088 2.289-10.037 4.154-11 4.146-.963-.008-1.75.378-1.75.858s-5.738 4.124-12.75 8.097C45.316 98.298 23 112.537 23 113.462c0 .278 4.742-2.426 10.537-6.008C45.293 100.187 68.032 88 69.833 88c.642 0 1.167.9 1.167 2 0 1.822.667 2 7.5 2H86v-4.917c0-3.015-.483-5.099-1.25-5.388-.687-.259.486-1.223 2.608-2.142 2.122-.919 4.147-1.382 4.5-1.03.353.352.786 13.677.961 29.61l.319 28.969 2.671 1.015c1.632.621 11.227.867 24.681.633l22.01-.382 13-4.119c7.15-2.265 14.688-4.828 16.75-5.697l3.75-1.579.218-29.736c.12-16.356.281-31.987.358-34.737l.139-5 12.393.162c37.484.491 49.354 12.762 31.722 32.794-6.753 7.671-3.708 6.09 4.486-2.33 8.027-8.249 12.657-16.186 12.674-21.728.022-6.855-6.896-12.795-18.526-15.909-5.749-1.539-28.52-2.793-34.964-1.925M71 68v5h15V63H71v5m114 0v5h16V63h-16v5m-67.25 11.08c-1.564.911-1.75 2.927-1.75 18.935 0 16.688.132 17.985 1.934 18.95 2.058 1.101 32.765 1.471 35.484.428C154.783 116.869 155 114.208 155 98c0-16.208-.217-18.869-1.582-19.393-2.682-1.029-33.797-.617-35.668.473M185 87v5h16V82h-16v5m47 14.923c-5.46 4.063-22.271 13.821-36.5 21.188-46.654 24.153-84.805 34.872-124.162 34.884-43.099.013-55.102-12.168-34.574-35.091L42.5 116.5l-5.214 4.313c-7.401 6.122-14.048 13.784-16.983 19.575-2.022 3.992-2.426 5.977-2.038 10.017.412 4.29 1.04 5.52 4.227 8.275 12.776 11.043 48.694 11.561 88.405 1.273 13.39-3.469 12.103-3.315 12.103-1.453 0 1.048 1.056 1.5 3.5 1.5 3.172 0 3.5-.264 3.5-2.817 0-2.528.549-2.991 5.338-4.5 2.936-.926 5.636-1.683 6-1.683.364 0 .662 2.025.662 4.5 0 4.476.019 4.5 3.5 4.5h3.5l.023-6.25.022-6.25 10.228-4.165c5.625-2.291 11.352-4.482 12.727-4.869 1.375-.386 3.175-1.273 4-1.97 4.547-3.843 12.089-6.496 18.467-6.496H201v-3.525c0-3.128.518-3.83 4.608-6.25 7.217-4.267 26.733-17.2 28.356-18.791 2.03-1.988 1.031-1.739-1.964.489M71 106v5h15v-10H71v5m114 0v5h16v-10h-16v5M71 125v5h15v-10H71v5m114.459-3.933c-1.225 1.982.543 2.295 3.801.674l3.24-1.613-3.191-.064c-1.755-.035-3.488.416-3.85 1.003M161 154v6h7v-12h-7v6M22.923 181.923c-3.325 3.325-3.99 9.109-1.463 12.717 1.849 2.64 6.646 4.658 9.695 4.078 1.812-.344 1.606-.477-.905-.582-5.778-.242-9.126-5.654-7.816-12.633.443-2.366 1.522-3.956 3.36-4.954 1.488-.808 2.109-1.487 1.379-1.509-.73-.022-2.642 1.275-4.25 2.883m9.871-1.875c4.895 1.964 6.446 11.82 2.539 16.136-1.01 1.117-1.192 1.816-.473 1.816 2.414 0 5.269-6.305 4.754-10.498-.523-4.265-4.296-8.555-7.42-8.439-1.209.046-1.038.327.6.985m9.206-.826c0 .867 7.221 18.33 7.856 18.998.376.396 1.741-2.228 3.033-5.831 1.292-3.603 2.675-6.177 3.074-5.72.399.457 1.754 3.435 3.012 6.617 1.257 3.182 2.455 5.618 2.66 5.412.992-.991 8.374-19.022 7.959-19.437-.482-.482-1.772 2.319-5.063 10.989-.991 2.613-2.079 4.747-2.417 4.744-.338-.004-1.715-2.931-3.061-6.504-1.345-3.573-2.737-6.158-3.094-5.743-.356.414-1.676 3.357-2.934 6.539-1.257 3.182-2.414 5.657-2.57 5.5-.155-.157-1.613-3.642-3.24-7.743-1.627-4.102-3.466-7.627-4.086-7.833-.621-.207-1.129-.202-1.129.012m32.25.506 3.75.393v9.439c0 5.627.404 9.44 1 9.44s1-3.813 1-9.44v-9.439l3.75-.393c2.063-.215-.075-.392-4.75-.392s-6.812.177-4.75.392m68.417-.061c-1.805 1.805-.46 6.557 2.914 10.291 2.008 2.222 3.431 4.75 3.24 5.753-.41 2.149-4.357 2.919-6.376 1.243-.857-.711-1.445-.786-1.445-.183 0 1.182 2.36 2.229 5.025 2.229 1.69 0 4.975-3.409 4.975-5.162 0-.394-1.8-2.796-4-5.338-4.238-4.896-4.734-6.366-2.8-8.3.718-.718.785-1.2.167-1.2-.569 0-1.334.3-1.7.667m4.333-.274c0 .216.698.661 1.552.989.89.341 1.291.173.941-.393-.587-.951-2.493-1.406-2.493-.596m-58 11.911v7.305l4.25.063c3.439.051 3.615-.021.921-.374l-3.33-.437.33-6.933c.24-5.056-.009-6.932-.921-6.93-.886.001-1.25 2.131-1.25 7.306m27 .196c0 4.333.422 7.5 1 7.5.578 0 1-3.167 1-7.5s-.422-7.5-1-7.5c-.578 0-1 3.167-1 7.5m10.639-3.749c.076 2.062.188 5.511.25 7.666.184 6.487 1.249 3.28 1.436-4.326.103-4.179-.236-7.092-.825-7.091-.55 0-.938 1.688-.861 3.751m29.274.446c2.005 2.726 3.087 5.376 3.087 7.559 0 1.849.39 3.121.866 2.827.476-.294.644-1.697.372-3.117-.348-1.824.453-3.961 2.727-7.274l3.22-4.692-3.093 3.5-3.092 3.5-2.75-3.259c-3.973-4.709-4.975-3.992-1.337.956m13.14-2.761c-1.377 1.659-.408 4.028 2.854 6.98 2.25 2.036 2.839 5.584.926 5.584-.641 0-.877.289-.524.643.894.894 3.691-1.587 3.691-3.275 0-.762-1.378-2.828-3.061-4.589-1.861-1.948-2.878-3.905-2.594-4.991.566-2.163.277-2.242-1.292-.352m9.76-.753c.721.289 1.584.253 1.916-.079.332-.332-.258-.568-1.312-.525-1.165.048-1.402.285-.604.604M183 191.5c0 9.75 1.743 9.748 2.171-.002.242-5.512-.003-7.502-.921-7.5-.889.001-1.25 2.17-1.25 7.502m4.75-6.838c.688.278 1.813.278 2.5 0 .688-.277.125-.504-1.25-.504s-1.937.227-1.25.504m5.902 6.406c.162 7.498 1.298 10.977 1.42 4.349.04-2.155.153-5.605.25-7.668.098-2.062-.272-3.75-.822-3.75-.587 0-.937 2.922-.848 7.069m12.773-3.521c-.366 1.95-.386 3.825-.045 4.166.341.341.62-.41.62-1.669 0-3.167 2.132-1.294 4.497 3.95 2.067 4.583 2.96 4.925 4.59 1.756.949-1.845.922-2.027-.15-1.015-1.057.999-1.951.092-4.68-4.75-1.855-3.292-3.551-5.985-3.77-5.985-.218 0-.696 1.596-1.062 3.547m14.454-1.462c-.862 1.328-2.113 3.54-2.779 4.915-1.14 2.354-1.12 2.387.345.559.855-1.068 1.555-2.305 1.555-2.75 0-.445.398-.809.885-.809.486 0 1.194 2.475 1.572 5.5.378 3.025 1.11 5.5 1.627 5.5.889 0 .57-3.889-.979-11.915l-.659-3.414-1.567 2.414m8.788-1.418c-1.53 1.529-.466 4.945 2.489 7.994 2.811 2.9 3.003 3.453 1.75 5.048-1.281 1.632-1.251 1.669.344.419 2.544-1.995 2.162-4.108-1.406-7.789-2.653-2.737-2.953-3.503-1.878-4.798 1.226-1.477.077-2.251-1.299-.874m-128.11 2.556c-.856 1.222-1.557 3.147-1.557 4.277 0 2.265 2.604 6.5 3.997 6.5.487 0 .239-1.238-.55-2.75-1.703-3.264-1.822-5.68-.412-8.316 1.411-2.636.437-2.446-1.478.289M205.232 196c0 1.925.206 2.713.457 1.75.252-.963.252-2.537 0-3.5-.251-.963-.457-.175-.457 1.75m23.501 2.124c.679.684 1.486.991 1.793.683.308-.308-.247-.867-1.233-1.243-1.425-.542-1.54-.428-.56.56m-31.464.569c.973.254 2.323.237 3-.037.677-.274-.119-.481-1.769-.461-1.65.02-2.204.244-1.231.498" fill="#1976D2" fill-rule="evenodd"/></svg>