<svg xmlns="http://www.w3.org/2000/svg" width="256" height="256"><path fill-opacity=".016" d="M0 128.004v128.004l128.25-.254 128.25-.254.254-127.75L257.008 0H0v128.004m.485.496c0 70.4.119 99.053.265 63.672.146-35.38.146-92.98 0-128C.604 29.153.485 58.1.485 128.5" fill="#1976D2" fill-rule="evenodd"/><path fill-opacity=".083" d="M54.278 2.549c-5.137 2.56-8.516 6.106-11.691 12.27-1.76 3.417-2.31 6.916-2.486 15.822L40 35.781l-7.343.371c-6.167.312-7.929.818-11.001 3.161C15.429 44.063 15 45.767 15 65.776c0 17.392.063 17.934 2.314 20.05 3.266 3.068 9.015 2.936 12.231-.281 2.382-2.381 2.455-2.89 2.455-17V54h7.689l.565 82.998c.563 82.648.575 83.017 2.744 87.497 3.001 6.2 9.241 11.28 16.252 13.232l5.75 1.601v4.351c0 3.55.623 5.03 3.387 8.047 3.176 3.465 3.82 3.72 10.303 4.087 6.4.361 7.163.181 10.248-2.415 3.608-3.036 6.062-7.839 6.062-11.866 0-2.38.315-2.536 5.25-2.595 4.657-.055 53.749-.024 59.5.039 1.833.019 2.25.586 2.25 3.056 0 8.563 5.8 13.961 15 13.961 9.126 0 15-5.237 15-13.372 0-3.339.213-3.541 5.277-5.013 6.486-1.886 12.846-7.165 15.678-13.015 2.11-4.358 2.135-5.197 2.49-83.248.197-43.365.402-80.758.456-83.095L216 54h8v14.545c0 14.11.073 14.619 2.455 17 3.518 3.519 9.632 3.431 12.472-.18 1.917-2.436 2.073-3.946 2.073-20.05 0-19.495-.454-21.271-6.639-25.989-3.008-2.294-4.875-2.845-10.751-3.171-3.91-.218-7.429-.9-7.818-1.517-.39-.617-.673-4.275-.63-8.13.095-8.397-1.768-13.448-6.961-18.877-7.66-8.008-3.191-7.584-80.255-7.609L59.393 0l-5.115 2.549m6.188 16.853c-1.527 1.115-1.995 2.949-2.301 9L57.781 36h140.482l-.479-7.464c-.263-4.105-1.053-8.155-1.754-9-1.123-1.353-9.155-1.536-67.461-1.536-55.188 0-66.505.233-68.103 1.402M58 135.461v81.461l2.189 2.039c2.156 2.009 3.152 2.039 67.825 2.039h65.637l2.175-2.314 2.174-2.315V54h-14l-.114 45.25c-.177 70.4-.3 73.265-3.34 77.86-4.968 7.507-3.936 7.352-51.249 7.708-40.261.303-42.409.226-46.677-1.662-2.973-1.315-5.422-3.411-7.297-6.243l-2.823-4.265-.32-59.324L71.859 54H58v81.461M84.033 61.75c.018 3.162-.134 28.628-.338 56.589-.345 47.248-.248 50.992 1.378 53 1.742 2.151 1.933 2.161 42.926 2.161h41.177l2.035-2.5c2.005-2.461 2.03-3.373 1.663-58.749l-.374-56.249-44.25-.001L84 56l.033 5.75m16.547 138.162c-2.438 2.694-1.707 7.226 1.42 8.8 1.797.905 9.107 1.259 26 1.259s24.203-.354 26-1.259c3.127-1.574 3.858-6.106 1.42-8.8-1.618-1.788-3.396-1.912-27.42-1.912s-25.802.124-27.42 1.912" fill="#1976D2" fill-rule="evenodd"/><path fill-opacity=".157" d="M56.581 2.001C46.038 6.146 41 14.151 41 26.757c0 4.735-.45 8.403-1.079 8.792-.594.367-4.01.811-7.593.987-4.893.241-7.447.938-10.264 2.803C15.778 43.499 15 46.41 15 65.755c0 16.609.05 17.007 2.452 19.599 3.139 3.387 7.47 3.477 11.242.234l2.806-2.412.337-14.876.338-14.875 4.162.038 4.163.037.5 84 .5 84 2.805 4.772c3.245 5.521 8.808 9.56 15.498 11.253 4.592 1.162 4.709 1.29 5.225 5.669.29 2.463 1.338 5.715 2.328 7.226 4.547 6.941 18.115 7.38 23.996.776 1.031-1.157 2.14-4.434 2.5-7.388l.648-5.308 33.714-.263 33.714-.264.694 5.264c1.183 8.968 8.542 14.08 17.777 12.348 6.618-1.242 11.601-7.492 11.601-14.553 0-2.471.416-3.036 2.25-3.054 3.532-.034 9.975-3.357 13.665-7.047 6.937-6.937 6.532-1.569 7.085-93.931l.5-83.5 4.157-.303 4.157-.303.343 15.141.343 15.141 2.806 2.412c4.473 3.846 9.755 3.129 12.231-1.66 1.102-2.131 1.463-6.71 1.463-18.563 0-13.869-.245-16.24-2.071-20.012-3.006-6.21-7.368-8.552-16.234-8.718L215.5 36.5l-.512-9.5c-.412-7.638-1-10.373-3-13.953-2.917-5.221-9.534-10.584-14.78-11.978C194.953.47 167.631.081 127.5.075 64.599.067 61.269.157 56.581 2.001M63.5 17.702c-4.447 1.122-5.5 3.22-5.5 10.953V36h140v-7.345c0-12.218 6.58-11.13-68.354-11.307-35.28-.083-65.046.076-66.146.354m-5.75 108.504c-.138 40.312-.137 77.332 0 82.266.403 14.46-7.316 13.028 70.25 13.028 64.631 0 65.983-.04 67.886-2 1.837-1.893 1.953-3.87 2.16-37 .121-19.25.16-56.297.087-82.327L198 52.846l-7.25.451-7.25.45-.5 60.054c-.491 58.971-.538 60.105-2.592 62.876-1.151 1.553-3.58 3.835-5.398 5.073-3.303 2.248-3.342 2.25-46.772 2.25-42.419 0-43.556-.051-47.234-2.118-2.073-1.165-4.688-3.755-5.813-5.756-1.975-3.515-2.065-5.647-2.646-63.132L71.944 53.5l-6.972-.294L58 52.912l-.25 73.294m27-70.522C83.109 56.118 83 59.7 83 113.073c0 55.594.047 56.974 2 58.927 1.935 1.935 3.333 2 43 2 39.722 0 41.063-.063 43.008-2.008 1.971-1.971 2.004-3.087 1.75-59.25L172.5 55.5l-43-.139c-23.65-.077-43.787.069-44.75.323M101 200c-2.402 2.402-2.569 5.288-.429 7.429 1.744 1.743 12.059 2.193 38.429 1.678 11.459-.224 14.867-.612 16.25-1.85 2.309-2.067 2.215-4.792-.25-7.257-1.893-1.893-3.333-2-27-2s-25.107.107-27 2" fill="#1976D2" fill-rule="evenodd"/><path fill-opacity=".118" d="M54.383 3.402c-4.822 2.245-8.526 5.992-11.381 11.514-.688 1.328-1.532 6.728-1.876 12L40.5 36.5l-7.682.5c-8.201.534-11.235 2.002-15.256 7.382-1.863 2.492-2.094 4.442-2.395 20.183l-.332 17.424 2.972 2.972c2.352 2.352 3.643 2.887 6.188 2.565C29.406 86.841 31 84.559 31 77.499c0-3.406.292-10.311.65-15.345L32.299 53H41l.136 80.25c.075 44.137.28 81.922.456 83.965.828 9.614 9.29 18.359 19.645 20.302 3.543.664 3.663.832 4.318 6.08.558 4.461 1.268 5.919 4.095 8.4 2.99 2.625 4.176 3.003 9.434 3.003 3.504 0 7.28-.654 9.044-1.566 3.451-1.785 5.872-6.697 5.872-11.915v-3.545l34.25.263 34.25.263.546 4.5c1.06 8.736 5.346 12.295 14.706 12.211 8.429-.075 12.694-3.899 13.622-12.211.276-2.475.53-4.577.564-4.671.034-.093 1.525-.486 3.312-.872 7.864-1.697 14.346-6.912 17.349-13.957 1.546-3.63 1.749-11.713 2.186-87.299l.482-83.3 4.617.3 4.616.299.275 15.118c.245 13.414.491 15.313 2.19 16.85 2.721 2.463 8.76 2.252 11.407-.398 2.006-2.008 2.128-3.119 2.126-19.35-.001-15.563-.199-17.557-2.054-20.717-3.471-5.914-7.633-8.003-15.945-8.003h-7.205l-.569-9.532c-.739-12.386-3.773-18.369-11.774-23.218L197.588 1l-69.044.01-69.044.01-5.117 2.382m6.406 14.961c-3.468 2.635-4.872 10.657-2.814 16.072L58.95 37h69.525c54.898 0 69.547-.263 69.629-1.25.102-1.214.072-9.464-.046-13-.032-.962-.958-2.65-2.058-3.75-1.96-1.96-3.311-1.999-67.75-1.968-52.358.025-66.098.296-67.461 1.331M57.788 65.25c-.182 6.737-.453 43.123-.602 80.858-.2 50.219.036 69.286.881 71.139.634 1.393 2.25 3.032 3.59 3.643 1.706.777 21.804 1.11 66.967 1.11h64.53l2.923-2.923 2.923-2.923v-36.413c0-20.027-.298-56.737-.663-81.577L197.674 53H183.06l-.28 59.75c-.311 66.324-.014 63.428-7.015 68.421L172.5 183.5h-44.676c-43.78 0-44.733-.042-47.5-2.094-1.553-1.152-3.829-3.852-5.058-6l-2.233-3.906-.017-59.25L73 53H58.118l-.33 12.25m25.201 43c-.006 29.288-.277 54.859-.602 56.825-.472 2.85-.115 4.128 1.761 6.299l2.352 2.723 41.216.202 41.216.201 2.284-2.277c2.102-2.096 2.28-3.13 2.237-13l-.25-57.473L173 55H83l-.011 53.25m19.761 90.887c-1.513.566-2.784 1.33-2.827 1.696-.042.367-.232 1.489-.422 2.494-.191 1.005.519 2.693 1.576 3.75C102.872 208.872 104.668 209 128 209c23.667 0 25.107-.107 27-2 2.477-2.477 2.487-3.176.09-6.139-1.902-2.351-2.011-2.362-25.75-2.558-14.421-.119-24.926.21-26.59.834" fill="#1976D2" fill-rule="evenodd"/></svg>