<svg xmlns="http://www.w3.org/2000/svg" width="256" height="256"><path fill-opacity=".016" d="M0 128.004v128.004l128.25-.254 128.25-.254.254-127.75L257.008 0H0v128.004m.485.496c0 70.4.119 99.053.265 63.672.146-35.38.146-92.98 0-128C.604 29.153.485 58.1.485 128.5" fill="#1976D2" fill-rule="evenodd"/><path fill-opacity=".071" d="M48.2 2.341c-5.543 2.901-11.814 9.012-14.496 14.126-1.723 3.285-2.217 6.444-2.66 17.033l-.544 13-7.334.5c-6.732.459-7.574.768-10.25 3.766L10 54.032l.004 22.234c.003 20.258.176 22.517 1.948 25.423 2.204 3.615 6.736 5.297 14.298 5.305L31 107v47.374c0 51.421.063 52.087 5.635 59.392 1.428 1.872 4.794 4.982 7.48 6.912l4.885 3.51v10.938c0 11.926 1.22 16.514 5.117 19.243C56.02 255.702 59.203 256 71.535 256h15.091l2.623-2.75C93.123 249.19 94 245.9 94 235.435V226h67v9.435c0 10.465.877 13.755 4.751 17.815l2.623 2.75h15.091c12.332 0 15.515-.298 17.418-1.631 3.897-2.729 5.117-7.317 5.117-19.243v-10.938l4.885-3.51c2.686-1.93 6.052-5.04 7.48-6.912 5.572-7.305 5.635-7.971 5.635-59.392V107l4.75-.006c7.562-.008 12.094-1.69 14.298-5.305 1.772-2.906 1.945-5.165 1.948-25.423L245 54.032l-2.916-3.266c-2.676-2.998-3.518-3.307-10.25-3.766l-7.334-.5-.544-13c-.443-10.582-.936-13.744-2.652-17-2.983-5.661-8.967-11.37-14.804-14.122l-5-2.358-74.5.035L52.5.09l-4.3 2.251m58.059 13.328c-2.742.572-5.259 3.969-5.259 7.099 0 1.278 1.105 3.427 2.455 4.777C105.909 30 105.91 30 127.5 30c21.59 0 21.591 0 24.045-2.455 2.944-2.943 3.143-6.473.545-9.684-1.889-2.335-2.138-2.363-22.75-2.51-11.462-.082-21.849.061-23.081.318M61 90v43h133V47H61v43m12.395 73.901C69 166.581 66 171.888 66 176.982c0 11.855 12.679 19.659 23.016 14.166 10.451-5.553 10.873-20.977.743-27.153-4.284-2.613-12.16-2.658-16.364-.094M167 162.706c-8.009 2.928-11.777 15.93-6.75 23.295 8.77 12.847 28.75 6.485 28.75-9.155 0-5.173-3.497-11.018-7.979-13.335-2.825-1.461-10.95-1.927-14.021-.805" fill="#1976D2" fill-rule="evenodd"/><path fill-opacity=".284" d="M50.424 2.057c-6.735 2.591-12.329 7.532-15.946 14.084-2.764 5.006-2.982 6.198-3.319 18.109L30.799 47H24.85c-7.365 0-11.549 2.036-13.429 6.534-2.094 5.013-2.036 42.377.073 46.455 2.432 4.702 5.204 6.011 12.729 6.011H31v46.818c0 38.641.261 47.699 1.495 51.854 1.629 5.483 7.673 13.118 13.194 16.667l3.363 2.161.224 12.177c.195 10.588.498 12.545 2.32 15 3.453 4.649 5.84 5.292 19.704 5.308 19.578.023 21.7-1.928 21.7-19.953V226h69v10.032c0 18.025 2.122 19.976 21.7 19.953 13.864-.016 16.251-.659 19.704-5.308 1.822-2.455 2.125-4.412 2.32-15l.224-12.177 3.363-2.161c5.521-3.549 11.565-11.184 13.194-16.667 1.234-4.155 1.495-13.213 1.495-51.854V106h6.777c7.806 0 10.692-1.485 12.829-6.599 2.002-4.793 1.981-41.06-.027-45.867-1.88-4.498-6.064-6.534-13.429-6.534h-5.949l-.36-12.75c-.337-11.911-.555-13.103-3.319-18.109-3.683-6.671-9.255-11.523-16.23-14.133C199.096.064 196.64.002 127.212.052c-68.665.05-71.928.135-76.788 2.005m52.765 14.982C100.346 19.687 100.25 25.25 103 28c1.881 1.881 3.333 2 24.5 2s22.619-.119 24.5-2c2.785-2.785 2.632-8.057-.314-10.826-2.232-2.096-3.103-2.174-24.312-2.174-20.755 0-22.12.115-24.185 2.039M61 90v44h133V46H61v44m13.5 72.995c-13.547 6.751-11.009 26.62 3.827 29.966 10.694 2.412 21.297-7.541 19.299-18.115-1.021-5.408-4.31-9.8-8.897-11.882-5.425-2.463-9.241-2.455-14.229.031m91.466.255c-7.586 3.829-10.843 12.426-7.589 20.032 3.121 7.294 10.817 11.366 18.296 9.679 14.871-3.354 17.377-23.328 3.761-29.976-5.273-2.575-8.976-2.507-14.468.265" fill="#1976D2" fill-rule="evenodd"/><path fill-opacity=".257" d="M55.92.988C46.349 2.654 37.971 9.307 33.866 18.5c-1.768 3.961-2.322 7.415-2.668 16.624l-.436 11.624-7.08.507c-6.368.455-7.361.822-9.881 3.641L11 54.032v44.936l2.883 3.227c2.639 2.954 3.481 3.26 9.955 3.626l7.073.4.294 48.139.295 48.14 3.197 6.117c3.215 6.15 7.088 10.186 12.423 12.945l2.88 1.489v12.024c0 12.958 1.058 16.798 5.26 19.084 3.359 1.827 24.361 2.315 29.144.678 6.679-2.287 7.999-5.173 8.051-17.6.025-5.946.491-11.065 1.045-11.472.55-.404 15.85-.734 34-.734s33.45.33 34 .734c.554.407 1.02 5.526 1.045 11.472.052 12.427 1.372 15.313 8.051 17.6 4.783 1.637 25.785 1.149 29.144-.678 4.202-2.286 5.26-6.126 5.26-19.084v-12.024l2.88-1.489c5.335-2.759 9.208-6.795 12.423-12.945l3.197-6.117.295-48.14.294-48.139 7.073-.4c6.474-.366 7.316-.672 9.955-3.626L244 98.968V76.707c0-18.963-.242-22.607-1.631-24.59-2.206-3.149-7.287-5.117-13.214-5.117h-4.908l-.451-11.75c-.355-9.27-.921-12.826-2.681-16.849-2.763-6.314-9.03-12.577-15.615-15.603L200.5.5l-70-.154C92 .261 58.439.55 55.92.988m-5.557 2.934C44.462 6.602 38.016 12.762 35.631 18c-1.598 3.509-2.168 7.362-2.59 17.5l-.541 13-7.887.559c-7.013.496-8.149.862-10.25 3.305C12.038 55.067 12 55.459 12 76.479v21.368l2.554 3.035c2.384 2.833 3.069 3.055 10.25 3.327l7.696.291.5 49.5c.375 37.124.82 50.224 1.78 52.394 2.19 4.95 7.074 10.344 12.251 13.53L52 222.982v13.057c0 12.835.045 13.098 2.646 15.509C57.189 253.904 57.83 254 71.09 254c13.14 0 13.932-.115 16.604-2.411 2.759-2.37 2.812-2.624 3.138-15L91.163 224h72.674l.331 12.589c.326 12.376.379 12.63 3.138 15 2.672 2.296 3.464 2.411 16.604 2.411 13.26 0 13.901-.096 16.444-2.452 2.599-2.409 2.646-2.684 2.646-15.396v-12.944l4.997-3.206c5.246-3.366 10.067-8.734 12.223-13.608.96-2.17 1.405-15.27 1.78-52.394l.5-49.5 7.696-.291c7.181-.272 7.866-.494 10.25-3.327L243 97.847V76.479c0-21.02-.038-21.412-2.363-24.115-2.101-2.443-3.237-2.809-10.25-3.305L222.5 48.5l-.541-13c-.634-15.219-2.22-19.822-8.912-25.849-8.985-8.095-3.502-7.607-85.547-7.607-69.292 0-73.21.095-77.137 1.878m53.994 10.042c-5.628 2.343-7.026 9.899-2.768 14.959L104.178 32h46.644l2.589-3.077c3.361-3.994 3.429-8.834.177-12.617l-2.411-2.806-22.339-.214c-12.286-.118-23.302.188-24.481.678m1 .999c-2.816 1.174-5.357 4.891-5.357 7.836 0 1.295 1.315 3.67 2.923 5.278L105.846 31h43.308l2.923-2.923c3.575-3.575 3.738-7.017.511-10.771l-2.411-2.806-21.339-.215c-11.736-.118-22.302.187-23.481.678M59.24 90.25l.26 45.25h136l.26-45.25.26-45.25H58.98l.26 45.25m1.434-43.59c-.371.37-.674 20.173-.674 44.007V134H195.021l-.26-43.75-.261-43.75-66.576-.257c-36.617-.141-66.88.046-67.25.417m13.785 114.16c-13.71 6.429-14.896 23.568-2.213 31.962 11.408 7.549 27.221-1.325 27.161-15.241-.013-2.809-.841-6.741-1.871-8.88-3.806-7.904-14.902-11.674-23.077-7.841m92.797-.703c-8.213 2.372-13.641 13.018-11.223 22.013 2.23 8.294 12.39 14.97 20.301 13.34 10.404-2.144 17.751-13.621 14.679-22.93-3.319-10.056-13.506-15.383-23.757-12.423m-90.601 1.343c-10.099 3.597-14.177 13.388-9.691 23.269 4.26 9.385 16.822 11.946 25.421 5.183 13.824-10.875.844-34.354-15.73-28.452m89.727 1.037c-14.121 7.037-12.468 26.101 2.657 30.633 16.665 4.993 28.418-17.153 15.066-28.388-2.794-2.351-8.626-4.72-11.659-4.736-.579-.003-3.308 1.118-6.064 2.491" fill="#1976D2" fill-rule="evenodd"/></svg>