<svg xmlns="http://www.w3.org/2000/svg" width="256" height="256"><path fill-opacity=".016" d="M0 128.004v128.004l128.25-.254 128.25-.254.254-127.75L257.008 0H0v128.004m.485.496c0 70.4.119 99.053.265 63.672.146-35.38.146-92.98 0-128C.604 29.153.485 58.1.485 128.5" fill="#1976D2" fill-rule="evenodd"/><path fill-opacity=".227" d="M34 125.365c0 125.314.001 125.366 2.073 128L38.145 256h17.973c17.749 0 18.003-.031 20.427-2.455 2.346-2.345 2.455-3.013 2.455-15V226h97v12.545c0 11.987.109 12.655 2.455 15 2.42 2.42 2.702 2.455 20.045 2.455 17.343 0 17.625-.035 20.045-2.455l2.455-2.454V0H34v125.365M79 21.5V28h97V15H79v6.5m4.373-4.031c-.821 2.14.489 3.373 1.627 1.531.49-.793 1.221-1.112 1.625-.709.403.404-.248 2.06-1.446 3.681C82.371 25.77 82.418 26 86 26c1.65 0 3-.45 3-1s-.745-1-1.655-1c-1.473 0-1.45-.227.208-2.059 1.427-1.576 1.614-2.454.798-3.75-1.448-2.298-4.218-2.7-4.978-.722M90 17c0 .55.906 1 2.013 1 1.926 0 1.948.158.5 3.622C90.758 25.823 90.73 26 91.815 26 92.81 26 96 19.496 96 17.466 96 16.504 94.969 16 93 16c-1.65 0-3 .45-3 1m8.327.207c-.544.711-.953 2.868-.908 4.793.064 2.755.525 3.564 2.169 3.798 3.047.436 4.376-1.739 3.545-5.802-.745-3.644-3.104-5.013-4.806-2.789m7.119.257c-1.492 1.129-1.594 1.48-.436 1.504.975.021 1.506 1.006 1.5 2.782-.016 4.322 1.952 4.21 2.308-.132.387-4.721-.757-6.131-3.372-4.154m19.881 3.417c.166 2.982-.109 3.756-1.192 3.341-.897-.345-1.238-.029-.939.869.788 2.365 3.741 2.252 4.64-.177.701-1.894.924-1.982 1.464-.574.832 2.169 3.304 2.122 4.726-.09 1.071-1.667 1.099-1.667.581 0-.489 1.572.318 1.75 7.924 1.75 5.595 0 8.469-.381 8.469-1.122 0-.802.408-.784 1.426.061.784.651 3.365 1.043 5.734.872 3.853-.278 4.328-.59 4.506-2.958.192-2.556.01-2.65-5.234-2.713-4.379-.052-5.432.251-5.432 1.564 0 .896-.324 1.305-.72.909-.396-.396-.733-1.708-.75-2.916-.024-1.727-.707-2.263-3.192-2.504-3.16-.306-3.163-.303-2.767 4 .282 3.062.173 3.584-.377 1.807-.526-1.702-1.615-2.599-3.411-2.809-2.221-.261-2.705.134-3.061 2.5-.307 2.044-.463 1.652-.572-1.441-.083-2.337-.6-4.25-1.15-4.25-.889 0-1.453 2.154-1.115 4.261.067.418-.743.22-1.8-.44-1.534-.958-2.276-.909-3.67.239-1.605 1.324-1.691 1.218-1.062-1.31.573-2.299.363-2.75-1.279-2.75-1.652 0-1.93.617-1.747 3.881M99 19c0 .55.45 1 1 1s1-.45 1-1-.45-1-1-1-1 .45-1 1m32.158 4c0 1.375.227 1.938.504 1.25.278-.687.278-1.812 0-2.5-.277-.687-.504-.125-.504 1.25M99 23c0 .55.702 1 1.559 1s1.281-.45.941-1c-.34-.55-1.041-1-1.559-1S99 22.45 99 23m41.079.583c.048 1.165.285 1.402.604.605.289-.722.253-1.585-.079-1.917-.332-.332-.568.258-.525 1.312m8 0c.048 1.165.285 1.402.604.605.289-.722.253-1.585-.079-1.917-.332-.332-.568.258-.525 1.312M51 104.5V162h69V47H51v57.5m84 0V162h69V47h-69v57.5m-58.5 32.856c-4.241 1.953-7.99 5.725-10.415 10.478-3.817 7.481-4.672 7.166 19.494 7.166h21.58l-.706-3.212c-.994-4.525-4.792-9.858-9.1-12.777-4.461-3.022-15.912-3.931-20.853-1.655M51 190.5v9.5h37v-19H51v9.5m116 0v9.5h37v-19h-37v9.5" fill="#1976D2" fill-rule="evenodd"/><path fill-opacity=".041" d="M34 125.077v125.077l2.923 2.923L39.846 256h16.442c22.281 0 21.556.572 21.933-17.3l.279-13.2h98l.279 13.2c.377 17.851-.316 17.3 21.721 17.3 14.906 0 16.445-.169 18.865-2.073l2.635-2.072V0H34v125.077M78.418 15.352c-.289.755-.389 4.022-.222 7.26L78.5 28.5h98v-14l-48.778-.26c-40.58-.215-48.866-.029-49.304 1.112m5.832 1.31c-.687.278-1.25 1.197-1.25 2.044 0 1.265.271 1.314 1.524.274 2.545-2.112 2.975-.146.655 2.992C82.371 25.77 82.418 26 86 26c1.65 0 3-.45 3-1s-.685-1-1.523-1c-1.333 0-1.318-.313.118-2.505 1.323-2.019 1.401-2.795.401-4-1.3-1.567-1.704-1.657-3.746-.833M90 17c0 .55.9 1 2 1 2.348 0 2.427.629.5 4-1.675 2.931-1.838 4-.609 4C92.767 26 96 18.902 96 16.98c0-.539-1.35-.98-3-.98s-3 .45-3 1m8.327.25c-2.4 3.795-.186 9.677 3.16 8.393 2.127-.816 2.071-8.215-.069-9.036-2.113-.811-2.18-.797-3.091.643m6.173.75c-.34.55.056 1 .881 1 .995 0 1.63 1.259 1.891 3.75.359 3.436.406 3.352.56-1 .125-3.547-.197-4.75-1.273-4.75-.793 0-1.719.45-2.059 1m21.199 3.75c.326 3.423.167 4.339-.569 3.279-.562-.809-1.353-1.139-1.759-.733-1.108 1.108 1.278 3.053 2.955 2.409.902-.346 1.6-2.312 1.825-5.133.295-3.713.056-4.572-1.271-4.572-1.347 0-1.555.836-1.181 4.75M135 18c0 .55.45 1 1 1s1-.45 1-1-.45-1-1-1-1 .45-1 1m10 3.5c0 4.029.241 4.5 2.3 4.5 1.265 0 2.789-.489 3.387-1.087.783-.783 1.275-.783 1.759 0 .896 1.45 9.244 1.397 10.148-.065.391-.633-.145-1.819-1.191-2.634-1.632-1.272-1.654-1.397-.153-.88.963.332 1.75.196 1.75-.303 0-.498-1.744-.882-3.876-.852-3.292.045-3.802.337-3.383 1.937.271 1.036-.01 1.884-.624 1.884-.615 0-1.117-.9-1.117-2s-.45-2-1-2-1 .702-1 1.559-.43 1.293-.956.968c-.526-.325-.686-1.297-.355-2.16.663-1.728-1.217-3.328-3.939-3.352-1.41-.012-1.75.86-1.75 4.485M99 19c0 .55.45 1 1 1s1-.45 1-1-.45-1-1-1-1 .45-1 1m48 1.059c0 .582.45.781 1 .441s1-.816 1-1.059-.45-.441-1-.441-1 .477-1 1.059m-17.61 1.367c-.91 2.371.377 4.765 2.357 4.384 1.107-.213 1.753-1.249 1.753-2.81 0-2.851-3.156-4.059-4.11-1.574M135 23c0 1.65.45 3 1 3s1-1.35 1-3-.45-3-1-3-1 1.35-1 3m3-.066c0 2.755.311 3.066 3.066 3.066 2.756 0 3.035-.279 2.75-2.75-.248-2.16-.906-2.818-3.066-3.066-2.471-.285-2.75-.006-2.75 2.75m-6.842.066c0 1.375.227 1.938.504 1.25.278-.687.278-1.812 0-2.5-.277-.687-.504-.125-.504 1.25M99 23c0 .55.702 1 1.559 1s1.281-.45.941-1c-.34-.55-1.041-1-1.559-1S99 22.45 99 23m41 .559c0 .857.45 1.281 1 .941.55-.34 1-1.041 1-1.559s-.45-.941-1-.941-1 .702-1 1.559m7-.059c0 .825.45 1.5 1 1.5s1-.675 1-1.5-.45-1.5-1-1.5-1 .675-1 1.5m11-.607c0 .491.739 1.176 1.641 1.523 1.373.527 1.435.38.378-.893-1.44-1.735-2.019-1.916-2.019-.63m-107 81.62v57.513l34.75-.263 34.75-.263.258-57.25.258-57.25H51v57.513m83-.013V162h70V47h-70v57.5m-55.5 32.707c-4.754 1.661-9.351 5.58-11.509 9.811C63.294 154.264 62.595 154 85.5 154s22.206.264 18.509-6.982c-4.447-8.716-15.966-13.147-25.509-9.811M51 191v10.044l18.75-.272 18.75-.272v-19l-18.75-.272-18.75-.272V191m115.214-.25.286 9.75 18.75.272 18.75.272V181h-38.072l.286 9.75" fill="#1976D2" fill-rule="evenodd"/><path fill-opacity=".989" d="M83.459 18.067c-.363.586-.389 1.336-.059 1.666.33.33.6.075.6-.566 0-.642.675-1.167 1.5-1.167 2.114 0 1.863 2.361-.476 4.479C82.631 24.644 83.246 26 86.618 26c1.439 0 2.233-.431 1.872-1.016-.346-.559-1.124-.71-1.729-.336-.747.461-.844.065-.302-1.234C88.381 18.807 88.301 17 86.176 17c-1.132 0-2.355.48-2.717 1.067m8.335-.356c1.835.352 2.157.874 1.612 2.614-1.509 4.821-1.447 5.033.491 1.675 2.705-4.689 2.627-5.022-1.147-4.864-2.425.102-2.668.248-.956.575m5.93 2.485c-.582 3.704 1.222 6.422 3.645 5.493 1.061-.408 1.451-1.74 1.285-4.387-.189-2.995-.682-3.866-2.325-4.106-1.676-.244-2.188.347-2.605 3M105.5 18c-.34.55-.169 1 .381 1 .549 0 1.175 1.688 1.391 3.75.359 3.436.406 3.352.56-1 .156-4.418-.885-6.092-2.332-3.75M99 19c0 .55.675 1 1.5 1s1.5-.45 1.5-1-.675-1-1.5-1-1.5.45-1.5 1m27 3c0 2.2.45 4 1 4s1-1.8 1-4-.45-4-1-4-1 1.8-1 4m19 0c0 2.2.45 4 1 4s1-1.8 1-4-.45-4-1-4-1 1.8-1 4m3.796-2.239c-.556 2.239.602 7.031 1.384 5.729.85-1.415.712-6.438-.191-6.997-.419-.259-.956.312-1.193 1.268m-19.129.906C128.629 21.704 128.883 25 130 25c.55 0 1-1.125 1-2.5 0-2.618-.231-2.936-1.333-1.833M132 22.441c0 1.407.45 2.559 1 2.559s1-.873 1-1.941-.45-2.219-1-2.559c-.567-.351-1 .49-1 1.941m3 .559c0 1.65.45 3 1 3s1-1.35 1-3-.45-3-1-3-1 1.35-1 3m3.787 0c.242 1.65.614 3 .826 3 .213 0 .387-1.35.387-3s-.372-3-.827-3c-.455 0-.628 1.35-.386 3m3 0c.242 1.65.614 3 .826 3 .213 0 .387-1.35.387-3s-.372-3-.827-3c-.455 0-.628 1.35-.386 3m11 0c.242 1.65.761 3 1.153 3 .393 0 .515-1.35.273-3s-.761-3-1.153-3c-.393 0-.515 1.35-.273 3m3.445 0c0 1.925.206 2.712.457 1.75.252-.962.252-2.538 0-3.5-.251-.962-.457-.175-.457 1.75M159 21.723c0 1.258 2.858 3.752 3.53 3.08.265-.265-.42-1.299-1.524-2.297-1.103-.999-2.006-1.351-2.006-.783m-59.808 1.352c.197.591.785 1.075 1.308 1.075s1.111-.484 1.308-1.075c.197-.591-.391-1.075-1.308-1.075s-1.505.484-1.308 1.075" fill="#1976D2" fill-rule="evenodd"/></svg>