<svg xmlns="http://www.w3.org/2000/svg" width="256" height="256"><path fill-opacity=".016" d="M0 128.004v128.004l128.25-.254 128.25-.254.254-127.75L257.008 0H0v128.004m.485.496c0 70.4.119 99.053.265 63.672.146-35.38.146-92.98 0-128C.604 29.153.485 58.1.485 128.5" fill="#1976D2" fill-rule="evenodd"/><path fill-opacity=".187" d="M34 125.365c0 125.314.001 125.366 2.073 128L38.145 256h17.973c17.749 0 18.003-.031 20.427-2.455 2.346-2.345 2.455-3.013 2.455-15V226h97v12.545c0 11.987.109 12.655 2.455 15 2.424 2.424 2.678 2.455 20.427 2.455h17.973l2.072-2.635c2.072-2.634 2.073-2.686 2.073-128V0H34v125.365M79 21.5V28h97V15H79v6.5m-28 83V162h69V47H51v57.5m84 0V162h69V47h-69v57.5m-55.79 32.046c-5.593 1.651-9.655 5.019-12.615 10.457-4.563 8.383-5.482 7.997 19.03 7.997h21.625l-.627-3.135c-2.266-11.329-15.631-18.798-27.413-15.319M51 190.5v9.5h37v-19H51v9.5m116 0v9.5h37v-19h-37v9.5" fill="#1976D2" fill-rule="evenodd"/><path fill-opacity=".049" d="M34 124.55c0 132.601-.124 129.037 4.545 130.829.89.341 8.982.621 17.981.621 15.85 0 16.45-.076 19.168-2.411 2.771-2.381 2.81-2.574 3.135-15.5l.33-13.089h96.682l.33 13.089c.325 12.926.364 13.119 3.135 15.5 2.718 2.335 3.318 2.411 19.168 2.411 8.999 0 17.091-.28 17.981-.621 4.669-1.792 4.545 1.772 4.545-130.829V0H34v124.55M79 21v7h97V14H79v7m-28 83.5V162h69V47H51v57.5m84 0V162h69V47h-69v57.5m-58.571 33.393c-4.749 2.157-9.668 7.721-11.179 12.646L64.187 154h42.673l-.82-2.861c-3.522-12.28-17.737-18.639-29.611-13.246M51 191v10h37v-20H51v10m116 0v10h37v-20h-37v10" fill="#1976D2" fill-rule="evenodd"/><path fill-opacity=".113" d="M34 125.077v125.077l2.923 2.923L39.846 256h16.442c22.281 0 21.556.572 21.933-17.3l.279-13.2h98l.279 13.2c.377 17.872-.348 17.3 21.933 17.3h16.442l2.923-2.923 2.923-2.923V0H34v125.077M78.418 15.352c-.289.755-.389 4.022-.222 7.26L78.5 28.5h98v-14l-48.778-.26c-40.58-.215-48.866-.029-49.304 1.112M51 104.5V162h70V47H51v57.5m83 0V162h70V47h-70v57.5m-55.5 32.707c-4.754 1.661-9.351 5.58-11.509 9.811-3.702 7.256-4.448 6.982 18.984 6.982h20.975l-.953-2.507c-2.048-5.389-4.127-8.488-7.246-10.803-6.046-4.489-13.639-5.795-20.251-3.483M51 191.022v10.022l18.75-.272 18.75-.272.286-9.75.286-9.75H51v10.022m115.214-.272.286 9.75 18.75.272 18.75.272V181h-38.072l.286 9.75" fill="#1976D2" fill-rule="evenodd"/></svg>