<svg xmlns="http://www.w3.org/2000/svg" width="256" height="256"><path fill-opacity=".227" d="M11 128v128h233V0H11v128" fill="#1976D2" fill-rule="evenodd"/><path fill-opacity=".488" d="M11 128v128h233V0H11v128M55 3.067C44.883 7.678 40.92 14.294 40.213 27.75L39.727 37h-6.403c-7.71 0-13.483 2.573-16.359 7.29-1.752 2.873-1.958 5.106-1.961 21.286-.004 17.603.056 18.132 2.31 20.25 2.877 2.702 7.666 2.819 10.825.265 2.25-1.819 2.384-2.627 2.861-17.25l.5-15.341h8l.5 83c.498 82.712.508 83.014 2.662 87 4.042 7.476 12.375 13.5 18.677 13.5 2.136 0 2.479.569 3.081 5.11.373 2.811 1.357 6.147 2.188 7.414 3.23 4.93 12.119 6.889 18.674 4.114 4.951-2.095 7.115-5.18 7.698-10.971l.52-5.167 33.75-.263 33.75-.264v2.389c0 8.493 4.238 14.101 11.478 15.187 9.969 1.495 17.522-4.194 17.522-13.197 0-3.844.263-4.353 2.25-4.362 3.875-.017 12.374-4.627 14.992-8.132 5.555-7.439 5.221-2.109 5.758-91.858l.5-83.5h9l.276 15.198c.273 15.044.302 15.218 2.885 17.25 3.572 2.809 7.855 2.627 10.947-.465l2.518-2.518-.313-17.913c-.284-16.253-.504-18.168-2.375-20.67-4.1-5.485-7.005-6.848-15.415-7.229l-7.842-.357-.34-9.73c-.308-8.775-.638-10.212-3.367-14.622-1.873-3.027-4.892-6.045-7.921-7.918L196.659 1.5l-68.58-.242C60.791 1.02 59.415 1.054 55 3.067m4.174 17.247C57.358 22.247 57 23.813 57 29.814V37h140v-6.865c0-5.431-.433-7.416-2.073-9.5L192.855 18H61.349l-2.175 2.314m-1.466 33.312c-.39.389-.708 37.275-.708 81.968v81.261l2.635 2.072c2.604 2.049 3.391 2.073 67.545 2.073h64.911l2.46-2.46 2.461-2.461-.256-81.289-.256-81.29-7.25-.294-7.25-.294-.022 58.294c-.025 65.569.2 63.505-7.54 69.41l-3.78 2.884-42.579.28-42.579.281-4.477-2.281c-2.655-1.352-5.301-3.705-6.5-5.78-1.952-3.378-2.04-5.579-2.523-63l-.5-59.5-6.542-.291c-3.599-.16-6.861.028-7.25.417M82 112.927v56.928l2.635 2.072c2.566 2.019 3.683 2.073 42.545 2.073h39.911l2.454-2.455 2.455-2.454V56H82v56.927m17.571 86.644c-1.95 1.951-2.005 4.452-.153 6.988 1.326 1.816 3.012 1.96 26.099 2.241 27.422.334 29.483-.059 29.483-5.623 0-5.089-.477-5.177-28.129-5.177-22.056 0-25.952.224-27.3 1.571" fill="#1976D2" fill-rule="evenodd"/><path fill-opacity=".376" d="M11 128v128l32.75-.09c21.508-.059 31.669-.403 29.602-1.002-1.732-.502-4.545-2.502-6.25-4.445-2.453-2.794-3.102-4.443-3.102-7.887 0-4.229-.106-4.373-3.703-5.048-8.598-1.613-16.82-8.654-19.136-16.386-.84-2.803-1.161-26.448-1.161-85.508V54h-8v13.55c0 15.103-.924 18.347-5.799 20.367-3.739 1.549-7.719.511-10.217-2.664C14.19 82.971 14 81.173 14 66.43c0-9.119.47-17.54 1.067-19.115 2.608-6.884 10.038-11.258 19.183-11.293L40 36v-8.321c0-7.106.401-9.105 2.75-13.7 3.306-6.466 8.489-10.816 14.963-12.557C61.968.278 59.636.127 36.75.067L11 0v128M196.817 1.902c10.841 3.744 16.303 11.896 16.984 25.348l.444 8.75 4.627.006c10.38.012 17.838 4.684 20.019 12.541 1.402 5.048 1.443 30.197.056 34.175-.614 1.762-2.442 3.768-4.389 4.816-2.898 1.561-3.749 1.626-6.486.492-5.554-2.301-6.072-3.985-6.072-19.753V54h-8v80.818c0 91.527.278 87.957-7.453 95.688-2.982 2.982-6.06 4.869-9.934 6.09-5.09 1.604-5.613 2.035-5.613 4.619 0 3.546-2.156 8.842-4.336 10.65-.905.75-3.337 1.968-5.405 2.706-3.284 1.172.445 1.347 29.491 1.385L244 256V0l-26.25.033-26.25.032 5.317 1.837M59.926 19.859c-1.975 1.599-2.411 3.03-2.749 9.021L56.774 36H196v-6.809c0-11.798 7.155-10.65-68.282-10.962-63.033-.261-65.531-.201-67.792 1.63M57 133.935c0 47.632.381 80.937.943 82.414.518 1.364 1.981 2.836 3.25 3.271 1.269.435 31.264.728 66.656.651 59.345-.129 64.496-.273 66.25-1.86 1.838-1.664 1.901-4.398 1.901-83.066V54h-14v118.7l-2.98 4.114c-5.367 7.409-3.748 7.186-52.22 7.182-42.434-.003-43.37-.046-46.8-2.136-3.918-2.388-5.943-4.848-7.674-9.324-.847-2.19-1.195-19.136-1.25-60.786L71 54H57v79.935m26-21.006c0 50.419.18 57.108 1.571 58.5 1.378 1.377 6.612 1.571 42.345 1.571 38.231 0 40.877-.114 42.429-1.829 1.499-1.656 1.655-7.17 1.655-58.5V56H83v56.929m16.655 85.9c-2.09 2.31-2.132 6.551-.084 8.6 1.348 1.347 5.257 1.571 27.444 1.571 25.601 0 25.888-.023 27.428-2.223 2.197-3.136 1.933-6.4-.666-8.22-1.868-1.309-6.225-1.557-27.345-1.557-23.068 0-25.257.15-26.777 1.829M94 241.032c0 3.707-2.115 8.991-4.336 10.833-.905.75-3.337 1.968-5.405 2.706-3.238 1.155 2.682 1.335 42.741 1.299 25.575-.023 45.336-.395 43.914-.826-6.778-2.054-9.914-6.195-9.914-13.091V238H94v3.032" fill="#1976D2" fill-rule="evenodd"/></svg>